<svg width="97" height="33" viewBox="0 0 97 33" fill="none" xmlns="http://www.w3.org/2000/svg">
<g filter="url(#filter0_d_1_4)">
<rect x="2.5" y="0.5" width="92" height="28" rx="6.5" stroke="#206FEB" shape-rendering="crispEdges"/>
</g>
<path d="M30.8816 18.596C31.0896 18.596 31.2616 18.664 31.3976 18.8C31.5416 18.928 31.6136 19.096 31.6136 19.304C31.6136 19.504 31.5416 19.672 31.3976 19.808C31.2616 19.936 31.0896 20 30.8816 20H26.9816C26.7736 20 26.5976 19.932 26.4536 19.796C26.3176 19.652 26.2496 19.476 26.2496 19.268V12.332C26.2496 12.124 26.3216 11.952 26.4656 11.816C26.6096 11.672 26.7936 11.6 27.0176 11.6C27.2096 11.6 27.3776 11.672 27.5216 11.816C27.6736 11.952 27.7496 12.124 27.7496 12.332V18.8L27.4856 18.596H30.8816ZM39.0959 16.796C39.0959 17.452 38.9479 18.032 38.6519 18.536C38.3639 19.032 37.9719 19.42 37.4759 19.7C36.9879 19.98 36.4399 20.12 35.8319 20.12C35.2239 20.12 34.6719 19.98 34.1759 19.7C33.6879 19.42 33.2959 19.032 32.9999 18.536C32.7119 18.032 32.5679 17.452 32.5679 16.796C32.5679 16.14 32.7119 15.564 32.9999 15.068C33.2959 14.564 33.6879 14.172 34.1759 13.892C34.6719 13.604 35.2239 13.46 35.8319 13.46C36.4399 13.46 36.9879 13.604 37.4759 13.892C37.9719 14.172 38.3639 14.564 38.6519 15.068C38.9479 15.564 39.0959 16.14 39.0959 16.796ZM37.6559 16.796C37.6559 16.388 37.5719 16.036 37.4039 15.74C37.2439 15.436 37.0239 15.2 36.7439 15.032C36.4719 14.864 36.1679 14.78 35.8319 14.78C35.4959 14.78 35.1879 14.864 34.9079 15.032C34.6359 15.2 34.4159 15.436 34.2479 15.74C34.0879 16.036 34.0079 16.388 34.0079 16.796C34.0079 17.196 34.0879 17.548 34.2479 17.852C34.4159 18.148 34.6359 18.38 34.9079 18.548C35.1879 18.716 35.4959 18.8 35.8319 18.8C36.1679 18.8 36.4719 18.716 36.7439 18.548C37.0239 18.38 37.2439 18.148 37.4039 17.852C37.5719 17.548 37.6559 17.196 37.6559 16.796ZM43.0202 13.46C43.3562 13.46 43.6642 13.512 43.9442 13.616C44.2242 13.72 44.4642 13.852 44.6642 14.012C44.8722 14.172 45.0322 14.336 45.1442 14.504C45.2642 14.664 45.3242 14.8 45.3242 14.912L45.0122 15.068V14.192C45.0122 13.984 45.0802 13.812 45.2162 13.676C45.3522 13.532 45.5242 13.46 45.7322 13.46C45.9402 13.46 46.1122 13.528 46.2482 13.664C46.3842 13.8 46.4522 13.976 46.4522 14.192V19.532C46.4522 20.228 46.3002 20.784 45.9962 21.2C45.7002 21.624 45.3082 21.928 44.8202 22.112C44.3322 22.304 43.8082 22.4 43.2482 22.4C43.0882 22.4 42.8802 22.38 42.6242 22.34C42.3682 22.3 42.1242 22.252 41.8922 22.196C41.6602 22.14 41.4842 22.088 41.3642 22.04C41.1242 21.936 40.9562 21.804 40.8602 21.644C40.7722 21.492 40.7562 21.328 40.8122 21.152C40.8842 20.92 41.0002 20.76 41.1602 20.672C41.3202 20.592 41.4882 20.584 41.6642 20.648C41.7442 20.672 41.8762 20.72 42.0602 20.792C42.2442 20.864 42.4442 20.928 42.6602 20.984C42.8842 21.048 43.0802 21.08 43.2482 21.08C43.8482 21.08 44.2922 20.96 44.5802 20.72C44.8682 20.48 45.0122 20.148 45.0122 19.724V18.68L45.1562 18.788C45.1562 18.892 45.1002 19.02 44.9882 19.172C44.8842 19.316 44.7362 19.46 44.5442 19.604C44.3602 19.748 44.1402 19.872 43.8842 19.976C43.6282 20.072 43.3562 20.12 43.0682 20.12C42.5002 20.12 41.9882 19.98 41.5322 19.7C41.0762 19.412 40.7162 19.02 40.4522 18.524C40.1882 18.02 40.0562 17.444 40.0562 16.796C40.0562 16.14 40.1882 15.564 40.4522 15.068C40.7162 14.564 41.0722 14.172 41.5202 13.892C41.9682 13.604 42.4682 13.46 43.0202 13.46ZM43.2482 14.78C42.8882 14.78 42.5722 14.868 42.3002 15.044C42.0282 15.22 41.8162 15.46 41.6642 15.764C41.5122 16.068 41.4362 16.412 41.4362 16.796C41.4362 17.172 41.5122 17.512 41.6642 17.816C41.8162 18.12 42.0282 18.36 42.3002 18.536C42.5722 18.712 42.8882 18.8 43.2482 18.8C43.6162 18.8 43.9362 18.712 44.2082 18.536C44.4802 18.36 44.6922 18.12 44.8442 17.816C44.9962 17.512 45.0722 17.172 45.0722 16.796C45.0722 16.412 44.9962 16.068 44.8442 15.764C44.6922 15.46 44.4802 15.22 44.2082 15.044C43.9362 14.868 43.6162 14.78 43.2482 14.78ZM59.2198 15.8C59.2198 16.4 59.1198 16.96 58.9198 17.48C58.7198 18 58.4358 18.46 58.0678 18.86C57.7078 19.252 57.2758 19.56 56.7718 19.784C56.2758 20.008 55.7318 20.12 55.1398 20.12C54.5478 20.12 54.0038 20.008 53.5078 19.784C53.0118 19.56 52.5798 19.252 52.2118 18.86C51.8518 18.46 51.5718 18 51.3718 17.48C51.1718 16.96 51.0718 16.4 51.0718 15.8C51.0718 15.2 51.1718 14.64 51.3718 14.12C51.5718 13.6 51.8518 13.144 52.2118 12.752C52.5798 12.352 53.0118 12.04 53.5078 11.816C54.0038 11.592 54.5478 11.48 55.1398 11.48C55.7318 11.48 56.2758 11.592 56.7718 11.816C57.2758 12.04 57.7078 12.352 58.0678 12.752C58.4358 13.144 58.7198 13.6 58.9198 14.12C59.1198 14.64 59.2198 15.2 59.2198 15.8ZM57.6598 15.8C57.6598 15.264 57.5518 14.78 57.3358 14.348C57.1198 13.908 56.8238 13.56 56.4478 13.304C56.0718 13.048 55.6358 12.92 55.1398 12.92C54.6438 12.92 54.2078 13.048 53.8318 13.304C53.4558 13.56 53.1598 13.904 52.9438 14.336C52.7358 14.768 52.6318 15.256 52.6318 15.8C52.6318 16.336 52.7358 16.824 52.9438 17.264C53.1598 17.696 53.4558 18.04 53.8318 18.296C54.2078 18.552 54.6438 18.68 55.1398 18.68C55.6358 18.68 56.0718 18.552 56.4478 18.296C56.8238 18.04 57.1198 17.696 57.3358 17.264C57.5518 16.824 57.6598 16.336 57.6598 15.8ZM65.2413 13.58C65.4493 13.58 65.6213 13.652 65.7573 13.796C65.8933 13.932 65.9613 14.104 65.9613 14.312V17.36C65.9613 18.208 65.7253 18.88 65.2533 19.376C64.7813 19.872 64.1013 20.12 63.2133 20.12C62.3253 20.12 61.6453 19.872 61.1733 19.376C60.7093 18.88 60.4773 18.208 60.4773 17.36V14.312C60.4773 14.104 60.5453 13.932 60.6813 13.796C60.8173 13.652 60.9893 13.58 61.1973 13.58C61.4053 13.58 61.5773 13.652 61.7133 13.796C61.8493 13.932 61.9173 14.104 61.9173 14.312V17.36C61.9173 17.848 62.0253 18.212 62.2413 18.452C62.4573 18.684 62.7813 18.8 63.2133 18.8C63.6533 18.8 63.9813 18.684 64.1973 18.452C64.4133 18.212 64.5213 17.848 64.5213 17.36V14.312C64.5213 14.104 64.5893 13.932 64.7253 13.796C64.8613 13.652 65.0333 13.58 65.2413 13.58ZM67.5922 13.7H70.4362C70.6282 13.7 70.7882 13.764 70.9162 13.892C71.0442 14.02 71.1082 14.18 71.1082 14.372C71.1082 14.556 71.0442 14.712 70.9162 14.84C70.7882 14.96 70.6282 15.02 70.4362 15.02H67.5922C67.4002 15.02 67.2402 14.956 67.1122 14.828C66.9842 14.7 66.9202 14.54 66.9202 14.348C66.9202 14.164 66.9842 14.012 67.1122 13.892C67.2402 13.764 67.4002 13.7 67.5922 13.7ZM68.8762 12.2C69.0842 12.2 69.2522 12.272 69.3802 12.416C69.5162 12.552 69.5842 12.724 69.5842 12.932V18.272C69.5842 18.384 69.6042 18.476 69.6442 18.548C69.6922 18.62 69.7522 18.672 69.8242 18.704C69.9042 18.736 69.9882 18.752 70.0762 18.752C70.1722 18.752 70.2602 18.736 70.3402 18.704C70.4202 18.664 70.5122 18.644 70.6162 18.644C70.7282 18.644 70.8282 18.696 70.9162 18.8C71.0122 18.904 71.0602 19.048 71.0602 19.232C71.0602 19.456 70.9362 19.64 70.6882 19.784C70.4482 19.928 70.1882 20 69.9082 20C69.7402 20 69.5522 19.988 69.3442 19.964C69.1442 19.932 68.9522 19.864 68.7682 19.76C68.5922 19.648 68.4442 19.48 68.3242 19.256C68.2042 19.032 68.1442 18.724 68.1442 18.332V12.932C68.1442 12.724 68.2122 12.552 68.3482 12.416C68.4922 12.272 68.6682 12.2 68.8762 12.2Z" fill="#206FEB"/>
<defs>
<filter id="filter0_d_1_4" x="0" y="0" width="97" height="33" filterUnits="userSpaceOnUse" color-interpolation-filters="sRGB">
<feFlood flood-opacity="0" result="BackgroundImageFix"/>
<feColorMatrix in="SourceAlpha" type="matrix" values="0 0 0 0 0 0 0 0 0 0 0 0 0 0 0 0 0 0 127 0" result="hardAlpha"/>
<feOffset dy="2"/>
<feGaussianBlur stdDeviation="1"/>
<feComposite in2="hardAlpha" operator="out"/>
<feColorMatrix type="matrix" values="0 0 0 0 0 0 0 0 0 0 0 0 0 0 0 0 0 0 0.25 0"/>
<feBlend mode="normal" in2="BackgroundImageFix" result="effect1_dropShadow_1_4"/>
<feBlend mode="normal" in="SourceGraphic" in2="effect1_dropShadow_1_4" result="shape"/>
</filter>
</defs>
</svg>
