<svg width="338" height="63" viewBox="0 0 338 63" fill="none" xmlns="http://www.w3.org/2000/svg">
<path d="M4.96 54.848L2.14 61.712C2.108 61.808 2.052 61.884 1.972 61.94C1.892 61.996 1.808 62.024 1.72 62.024C1.568 62.024 1.456 61.984 1.384 61.904C1.312 61.824 1.276 61.728 1.276 61.616C1.268 61.56 1.276 61.5 1.3 61.436L4.408 53.876C4.448 53.764 4.508 53.684 4.588 53.636C4.676 53.58 4.772 53.556 4.876 53.564C4.98 53.564 5.072 53.592 5.152 53.648C5.24 53.704 5.3 53.78 5.332 53.876L8.428 61.364C8.452 61.428 8.464 61.492 8.464 61.556C8.464 61.7 8.416 61.816 8.32 61.904C8.224 61.984 8.116 62.024 7.996 62.024C7.9 62.024 7.812 61.996 7.732 61.94C7.652 61.884 7.592 61.804 7.552 61.7L4.696 54.836L4.96 54.848ZM2.74 59.756L3.148 58.82H6.712L6.892 59.756H2.74ZM23.5713 53.6C24.0113 53.6 24.4073 53.708 24.7593 53.924C25.1113 54.14 25.3873 54.436 25.5873 54.812C25.7953 55.188 25.8993 55.616 25.8993 56.096C25.8993 56.568 25.7953 56.996 25.5873 57.38C25.3873 57.764 25.1113 58.068 24.7593 58.292C24.4073 58.516 24.0113 58.628 23.5713 58.628H21.1353L21.2193 58.484V61.508C21.2193 61.644 21.1753 61.76 21.0873 61.856C20.9993 61.952 20.8873 62 20.7513 62C20.6073 62 20.4913 61.952 20.4033 61.856C20.3233 61.76 20.2833 61.644 20.2833 61.508V54.08C20.2833 53.944 20.3273 53.832 20.4153 53.744C20.5113 53.648 20.6273 53.6 20.7633 53.6H23.5713ZM23.5713 57.704C23.8353 57.704 24.0673 57.632 24.2673 57.488C24.4673 57.344 24.6273 57.148 24.7473 56.9C24.8673 56.652 24.9273 56.384 24.9273 56.096C24.9273 55.792 24.8673 55.524 24.7473 55.292C24.6273 55.06 24.4673 54.876 24.2673 54.74C24.0673 54.596 23.8353 54.524 23.5713 54.524H21.1353L21.2193 54.392V57.824L21.1353 57.704H23.5713ZM31.6189 62C31.4669 62 31.3349 61.952 31.2229 61.856C31.1189 61.76 31.0669 61.644 31.0669 61.508V54.08C31.0669 53.944 31.1109 53.832 31.1989 53.744C31.2949 53.648 31.4109 53.6 31.5469 53.6H34.8589C35.3069 53.6 35.7109 53.704 36.0709 53.912C36.4309 54.112 36.7149 54.392 36.9229 54.752C37.1389 55.104 37.2469 55.512 37.2469 55.976C37.2469 56.312 37.1829 56.628 37.0549 56.924C36.9269 57.212 36.7509 57.464 36.5269 57.68C36.3029 57.888 36.0469 58.048 35.7589 58.16L35.4949 57.968C35.7669 58.032 36.0109 58.148 36.2269 58.316C36.4429 58.476 36.6189 58.684 36.7549 58.94C36.8909 59.188 36.9629 59.48 36.9709 59.816C36.9869 60.112 37.0069 60.348 37.0309 60.524C37.0549 60.7 37.0909 60.84 37.1389 60.944C37.1869 61.04 37.2549 61.116 37.3429 61.172C37.4549 61.244 37.5269 61.34 37.5589 61.46C37.5989 61.58 37.5789 61.696 37.4989 61.808C37.4509 61.88 37.3829 61.932 37.2949 61.964C37.2069 61.988 37.1189 61.996 37.0309 61.988C36.9429 61.98 36.8669 61.956 36.8029 61.916C36.6749 61.844 36.5509 61.74 36.4309 61.604C36.3109 61.46 36.2109 61.256 36.1309 60.992C36.0509 60.728 36.0109 60.368 36.0109 59.912C36.0109 59.656 35.9709 59.444 35.8909 59.276C35.8109 59.108 35.7029 58.972 35.5669 58.868C35.4309 58.764 35.2789 58.692 35.1109 58.652C34.9429 58.612 34.7709 58.592 34.5949 58.592H31.9189L32.0629 58.376V61.508C32.0629 61.644 32.0229 61.76 31.9429 61.856C31.8629 61.952 31.7549 62 31.6189 62ZM31.9189 57.728H34.8589C35.0909 57.712 35.3069 57.632 35.5069 57.488C35.7149 57.344 35.8829 57.144 36.0109 56.888C36.1469 56.624 36.2149 56.328 36.2149 56C36.2149 55.576 36.0789 55.224 35.8069 54.944C35.5429 54.664 35.2069 54.524 34.7989 54.524H31.9669L32.0629 54.296V57.944L31.9189 57.728ZM50.2311 57.8C50.2311 58.416 50.1311 58.988 49.9311 59.516C49.7311 60.036 49.4511 60.492 49.0911 60.884C48.7311 61.276 48.3031 61.58 47.8071 61.796C47.3111 62.012 46.7711 62.12 46.1871 62.12C45.5951 62.12 45.0511 62.012 44.5551 61.796C44.0671 61.58 43.6431 61.276 43.2831 60.884C42.9231 60.492 42.6431 60.036 42.4431 59.516C42.2431 58.988 42.1431 58.416 42.1431 57.8C42.1431 57.176 42.2431 56.604 42.4431 56.084C42.6431 55.556 42.9231 55.1 43.2831 54.716C43.6431 54.324 44.0671 54.02 44.5551 53.804C45.0511 53.588 45.5951 53.48 46.1871 53.48C46.7711 53.48 47.3111 53.588 47.8071 53.804C48.3031 54.02 48.7311 54.324 49.0911 54.716C49.4511 55.1 49.7311 55.556 49.9311 56.084C50.1311 56.604 50.2311 57.176 50.2311 57.8ZM49.1991 57.8C49.1991 57.144 49.0671 56.564 48.8031 56.06C48.5471 55.556 48.1951 55.16 47.7471 54.872C47.2991 54.584 46.7791 54.44 46.1871 54.44C45.5951 54.44 45.0711 54.584 44.6151 54.872C44.1671 55.16 43.8151 55.556 43.5591 56.06C43.3031 56.564 43.1751 57.144 43.1751 57.8C43.1751 58.448 43.3031 59.028 43.5591 59.54C43.8151 60.044 44.1671 60.44 44.6151 60.728C45.0711 61.016 45.5951 61.16 46.1871 61.16C46.7791 61.16 47.2991 61.016 47.7471 60.728C48.1951 60.44 48.5471 60.044 48.8031 59.54C49.0671 59.028 49.1991 58.448 49.1991 57.8ZM58.9032 53.6C59.4872 53.6 59.9992 53.712 60.4392 53.936C60.8872 54.152 61.2592 54.456 61.5552 54.848C61.8512 55.24 62.0712 55.692 62.2152 56.204C62.3672 56.708 62.4432 57.24 62.4432 57.8C62.4432 58.568 62.3112 59.272 62.0472 59.912C61.7832 60.544 61.3912 61.052 60.8712 61.436C60.3512 61.812 59.6952 62 58.9032 62H55.9032C55.7672 62 55.6512 61.952 55.5552 61.856C55.4672 61.76 55.4232 61.644 55.4232 61.508V54.08C55.4232 53.944 55.4672 53.832 55.5552 53.744C55.6512 53.648 55.7672 53.6 55.9032 53.6H58.9032ZM58.7832 61.064C59.3992 61.064 59.8992 60.916 60.2832 60.62C60.6752 60.324 60.9592 59.928 61.1352 59.432C61.3192 58.936 61.4112 58.392 61.4112 57.8C61.4112 57.368 61.3592 56.956 61.2552 56.564C61.1592 56.164 61.0032 55.812 60.7872 55.508C60.5792 55.204 60.3072 54.964 59.9712 54.788C59.6432 54.612 59.2472 54.524 58.7832 54.524H56.3232L56.4192 54.428V61.184L56.3472 61.064H58.7832ZM73.5885 53.588C73.7245 53.588 73.8365 53.636 73.9245 53.732C74.0125 53.828 74.0565 53.944 74.0565 54.08V58.844C74.0565 59.46 73.9125 60.012 73.6245 60.5C73.3445 60.988 72.9645 61.376 72.4845 61.664C72.0045 61.944 71.4605 62.084 70.8525 62.084C70.2365 62.084 69.6845 61.944 69.1965 61.664C68.7165 61.376 68.3365 60.988 68.0565 60.5C67.7765 60.012 67.6365 59.46 67.6365 58.844V54.08C67.6365 53.944 67.6805 53.828 67.7685 53.732C67.8645 53.636 67.9885 53.588 68.1405 53.588C68.2685 53.588 68.3805 53.636 68.4765 53.732C68.5805 53.828 68.6325 53.944 68.6325 54.08V58.844C68.6325 59.284 68.7325 59.676 68.9325 60.02C69.1325 60.364 69.4005 60.636 69.7365 60.836C70.0805 61.028 70.4525 61.124 70.8525 61.124C71.2605 61.124 71.6365 61.028 71.9805 60.836C72.3245 60.636 72.6005 60.364 72.8085 60.02C73.0245 59.676 73.1325 59.284 73.1325 58.844V54.08C73.1325 53.944 73.1725 53.828 73.2525 53.732C73.3325 53.636 73.4445 53.588 73.5885 53.588ZM85.804 54.152C85.94 54.224 86.016 54.332 86.032 54.476C86.056 54.62 86.02 54.752 85.924 54.872C85.852 54.976 85.76 55.032 85.648 55.04C85.536 55.048 85.424 55.024 85.312 54.968C85.048 54.808 84.764 54.684 84.46 54.596C84.156 54.5 83.836 54.452 83.5 54.452C83.028 54.452 82.596 54.536 82.204 54.704C81.812 54.864 81.472 55.092 81.184 55.388C80.896 55.684 80.672 56.036 80.512 56.444C80.352 56.852 80.272 57.304 80.272 57.8C80.272 58.328 80.356 58.8 80.524 59.216C80.692 59.632 80.92 59.988 81.208 60.284C81.504 60.572 81.844 60.792 82.228 60.944C82.62 61.096 83.044 61.172 83.5 61.172C83.828 61.172 84.144 61.128 84.448 61.04C84.752 60.952 85.04 60.824 85.312 60.656C85.424 60.6 85.536 60.58 85.648 60.596C85.76 60.612 85.856 60.668 85.936 60.764C86.032 60.892 86.068 61.028 86.044 61.172C86.02 61.308 85.944 61.408 85.816 61.472C85.616 61.592 85.388 61.704 85.132 61.808C84.876 61.904 84.608 61.98 84.328 62.036C84.056 62.092 83.78 62.12 83.5 62.12C82.924 62.12 82.38 62.02 81.868 61.82C81.356 61.62 80.904 61.332 80.512 60.956C80.12 60.58 79.808 60.128 79.576 59.6C79.352 59.064 79.24 58.464 79.24 57.8C79.24 57.176 79.348 56.604 79.564 56.084C79.78 55.564 80.08 55.112 80.464 54.728C80.856 54.344 81.308 54.044 81.82 53.828C82.34 53.612 82.9 53.504 83.5 53.504C83.916 53.504 84.32 53.56 84.712 53.672C85.112 53.784 85.476 53.944 85.804 54.152ZM93.6944 62C93.5504 62 93.4304 61.952 93.3344 61.856C93.2384 61.76 93.1904 61.644 93.1904 61.508V54.092H94.2104V61.508C94.2104 61.644 94.1624 61.76 94.0664 61.856C93.9704 61.952 93.8464 62 93.6944 62ZM90.9104 54.512C90.7744 54.512 90.6584 54.472 90.5624 54.392C90.4744 54.304 90.4304 54.192 90.4304 54.056C90.4304 53.92 90.4744 53.812 90.5624 53.732C90.6584 53.644 90.7744 53.6 90.9104 53.6H96.4904C96.6264 53.6 96.7424 53.644 96.8384 53.732C96.9344 53.812 96.9824 53.92 96.9824 54.056C96.9824 54.2 96.9344 54.312 96.8384 54.392C96.7424 54.472 96.6264 54.512 96.4904 54.512H90.9104ZM116.503 57.8C116.503 58.416 116.403 58.988 116.203 59.516C116.003 60.036 115.723 60.492 115.363 60.884C115.003 61.276 114.575 61.58 114.079 61.796C113.583 62.012 113.043 62.12 112.459 62.12C111.867 62.12 111.323 62.012 110.827 61.796C110.339 61.58 109.915 61.276 109.555 60.884C109.195 60.492 108.915 60.036 108.715 59.516C108.515 58.988 108.415 58.416 108.415 57.8C108.415 57.176 108.515 56.604 108.715 56.084C108.915 55.556 109.195 55.1 109.555 54.716C109.915 54.324 110.339 54.02 110.827 53.804C111.323 53.588 111.867 53.48 112.459 53.48C113.043 53.48 113.583 53.588 114.079 53.804C114.575 54.02 115.003 54.324 115.363 54.716C115.723 55.1 116.003 55.556 116.203 56.084C116.403 56.604 116.503 57.176 116.503 57.8ZM115.471 57.8C115.471 57.144 115.339 56.564 115.075 56.06C114.819 55.556 114.467 55.16 114.019 54.872C113.571 54.584 113.051 54.44 112.459 54.44C111.867 54.44 111.343 54.584 110.887 54.872C110.439 55.16 110.087 55.556 109.831 56.06C109.575 56.564 109.447 57.144 109.447 57.8C109.447 58.448 109.575 59.028 109.831 59.54C110.087 60.044 110.439 60.44 110.887 60.728C111.343 61.016 111.867 61.16 112.459 61.16C113.051 61.16 113.571 61.016 114.019 60.728C114.467 60.44 114.819 60.044 115.075 59.54C115.339 59.028 115.471 58.448 115.471 57.8ZM122.187 62C122.043 62 121.923 61.952 121.827 61.856C121.739 61.76 121.695 61.644 121.695 61.508V54.08C121.695 53.944 121.739 53.832 121.827 53.744C121.923 53.648 122.039 53.6 122.175 53.6H126.387C126.523 53.6 126.639 53.644 126.735 53.732C126.831 53.82 126.879 53.932 126.879 54.068C126.879 54.196 126.831 54.304 126.735 54.392C126.639 54.48 126.523 54.524 126.387 54.524H122.607L122.679 54.428V57.368L122.619 57.236H125.847C125.983 57.236 126.099 57.284 126.195 57.38C126.291 57.468 126.339 57.58 126.339 57.716C126.339 57.836 126.291 57.944 126.195 58.04C126.099 58.128 125.983 58.172 125.847 58.172H122.595L122.679 58.064V61.508C122.679 61.644 122.631 61.76 122.535 61.856C122.439 61.952 122.323 62 122.187 62ZM145.201 53.6C145.361 53.6 145.489 53.656 145.585 53.768C145.689 53.872 145.741 54.004 145.741 54.164V61.388C145.741 61.564 145.681 61.712 145.561 61.832C145.449 61.944 145.305 62 145.129 62C145.049 62 144.961 61.984 144.865 61.952C144.777 61.92 144.709 61.876 144.661 61.82L139.729 55.424L140.005 55.268V61.448C140.005 61.6 139.953 61.732 139.849 61.844C139.745 61.948 139.613 62 139.453 62C139.285 62 139.149 61.948 139.045 61.844C138.949 61.732 138.901 61.6 138.901 61.448V54.212C138.901 54.028 138.961 53.88 139.081 53.768C139.201 53.656 139.345 53.6 139.513 53.6C139.601 53.6 139.693 53.62 139.789 53.66C139.893 53.692 139.969 53.744 140.017 53.816L144.829 60.08L144.649 60.248V54.164C144.649 54.004 144.701 53.872 144.805 53.768C144.909 53.656 145.041 53.6 145.201 53.6ZM151.914 53.6H156.066C156.234 53.6 156.374 53.656 156.486 53.768C156.606 53.88 156.666 54.02 156.666 54.188C156.666 54.356 156.606 54.492 156.486 54.596C156.374 54.7 156.234 54.752 156.066 54.752H152.442L152.562 54.548V57.236L152.454 57.116H155.526C155.694 57.116 155.834 57.172 155.946 57.284C156.066 57.396 156.126 57.54 156.126 57.716C156.126 57.884 156.066 58.02 155.946 58.124C155.834 58.228 155.694 58.28 155.526 58.28H152.478L152.562 58.172V60.944L152.478 60.848H156.066C156.234 60.848 156.374 60.908 156.486 61.028C156.606 61.14 156.666 61.272 156.666 61.424C156.666 61.592 156.606 61.732 156.486 61.844C156.374 61.948 156.234 62 156.066 62H151.914C151.746 62 151.602 61.944 151.482 61.832C151.362 61.712 151.302 61.564 151.302 61.388V54.212C151.302 54.036 151.362 53.892 151.482 53.78C151.602 53.66 151.746 53.6 151.914 53.6ZM167.385 53.576C167.545 53.576 167.677 53.636 167.781 53.756C167.893 53.868 167.949 53.992 167.949 54.128C167.949 54.256 167.905 54.38 167.817 54.5L165.297 57.872L164.613 56.924L166.905 53.864C167.041 53.672 167.201 53.576 167.385 53.576ZM161.913 53.564C162.105 53.564 162.269 53.648 162.405 53.816L167.817 61.088C167.905 61.192 167.949 61.312 167.949 61.448C167.949 61.64 167.881 61.788 167.745 61.892C167.609 61.996 167.473 62.048 167.337 62.048C167.145 62.048 166.985 61.964 166.857 61.796L161.433 54.536C161.345 54.424 161.301 54.304 161.301 54.176C161.301 54 161.365 53.856 161.493 53.744C161.621 53.624 161.761 53.564 161.913 53.564ZM161.829 62.048C161.677 62.048 161.549 61.996 161.445 61.892C161.341 61.78 161.289 61.656 161.289 61.52C161.289 61.384 161.337 61.248 161.433 61.112L163.977 57.668L164.637 58.64L162.321 61.772C162.193 61.956 162.029 62.048 161.829 62.048ZM175.757 62C175.565 62 175.409 61.944 175.289 61.832C175.177 61.712 175.121 61.564 175.121 61.388V54.2H176.405V61.388C176.405 61.564 176.341 61.712 176.213 61.832C176.093 61.944 175.941 62 175.757 62ZM173.033 54.752C172.865 54.752 172.721 54.7 172.601 54.596C172.481 54.484 172.421 54.34 172.421 54.164C172.421 53.996 172.481 53.86 172.601 53.756C172.721 53.652 172.865 53.6 173.033 53.6H178.493C178.661 53.6 178.801 53.656 178.913 53.768C179.033 53.872 179.093 54.008 179.093 54.176C179.093 54.352 179.033 54.492 178.913 54.596C178.801 54.7 178.661 54.752 178.493 54.752H173.033ZM196.955 54.08C197.131 54.168 197.231 54.304 197.255 54.488C197.287 54.672 197.243 54.84 197.123 54.992C197.035 55.112 196.919 55.18 196.775 55.196C196.639 55.212 196.503 55.184 196.367 55.112C196.135 54.992 195.891 54.896 195.635 54.824C195.379 54.752 195.107 54.716 194.819 54.716C194.363 54.716 193.951 54.792 193.583 54.944C193.223 55.088 192.911 55.3 192.647 55.58C192.383 55.852 192.179 56.176 192.035 56.552C191.899 56.928 191.831 57.344 191.831 57.8C191.831 58.304 191.907 58.752 192.059 59.144C192.211 59.528 192.419 59.856 192.683 60.128C192.955 60.392 193.271 60.592 193.631 60.728C193.999 60.856 194.395 60.92 194.819 60.92C195.091 60.92 195.355 60.888 195.611 60.824C195.875 60.76 196.123 60.664 196.355 60.536C196.499 60.464 196.639 60.44 196.775 60.464C196.919 60.48 197.035 60.548 197.123 60.668C197.259 60.836 197.307 61.008 197.267 61.184C197.235 61.352 197.135 61.48 196.967 61.568C196.767 61.68 196.547 61.776 196.307 61.856C196.067 61.936 195.823 62 195.575 62.048C195.327 62.096 195.075 62.12 194.819 62.12C194.243 62.12 193.699 62.024 193.187 61.832C192.675 61.64 192.219 61.36 191.819 60.992C191.419 60.624 191.103 60.172 190.871 59.636C190.647 59.1 190.535 58.488 190.535 57.8C190.535 57.184 190.639 56.616 190.847 56.096C191.063 55.568 191.363 55.116 191.747 54.74C192.139 54.356 192.595 54.06 193.115 53.852C193.635 53.636 194.203 53.528 194.819 53.528C195.203 53.528 195.575 53.576 195.935 53.672C196.303 53.768 196.643 53.904 196.955 54.08ZM205.22 55.16L202.52 61.64C202.472 61.768 202.4 61.868 202.304 61.94C202.208 62.012 202.1 62.048 201.98 62.048C201.804 62.048 201.672 62 201.584 61.904C201.496 61.8 201.448 61.672 201.44 61.52C201.44 61.464 201.452 61.4 201.476 61.328L204.524 53.96C204.58 53.824 204.66 53.72 204.764 53.648C204.876 53.576 204.996 53.544 205.124 53.552C205.244 53.552 205.356 53.588 205.46 53.66C205.564 53.732 205.64 53.832 205.688 53.96L208.7 61.22C208.732 61.3 208.748 61.38 208.748 61.46C208.748 61.636 208.688 61.78 208.568 61.892C208.456 61.996 208.328 62.048 208.184 62.048C208.064 62.048 207.952 62.012 207.848 61.94C207.752 61.86 207.68 61.76 207.632 61.64L204.908 55.196L205.22 55.16ZM203 59.936L203.54 58.784H206.936L207.14 59.936H203ZM216.903 53.6C217.327 53.6 217.719 53.716 218.079 53.948C218.439 54.172 218.727 54.48 218.943 54.872C219.159 55.264 219.267 55.704 219.267 56.192C219.267 56.68 219.159 57.124 218.943 57.524C218.727 57.916 218.439 58.232 218.079 58.472C217.719 58.704 217.327 58.82 216.903 58.82H214.587L214.683 58.628V61.388C214.683 61.564 214.627 61.712 214.515 61.832C214.411 61.944 214.271 62 214.095 62C213.927 62 213.787 61.944 213.675 61.832C213.571 61.712 213.519 61.564 213.519 61.388V54.212C213.519 54.036 213.579 53.892 213.699 53.78C213.819 53.66 213.963 53.6 214.131 53.6H216.903ZM216.903 57.668C217.111 57.668 217.299 57.6 217.467 57.464C217.643 57.328 217.783 57.148 217.887 56.924C217.999 56.7 218.055 56.456 218.055 56.192C218.055 55.928 217.999 55.688 217.887 55.472C217.783 55.256 217.643 55.084 217.467 54.956C217.299 54.82 217.111 54.752 216.903 54.752H214.563L214.683 54.572V57.824L214.575 57.668H216.903ZM225.586 61.388C225.578 61.564 225.51 61.712 225.382 61.832C225.262 61.944 225.118 62 224.95 62C224.766 62 224.614 61.944 224.494 61.832C224.382 61.712 224.326 61.564 224.326 61.388V54.212C224.326 54.036 224.386 53.892 224.506 53.78C224.626 53.66 224.782 53.6 224.974 53.6C225.134 53.6 225.274 53.66 225.394 53.78C225.522 53.892 225.586 54.036 225.586 54.212V61.388ZM233.861 62C233.669 62 233.513 61.944 233.393 61.832C233.281 61.712 233.225 61.564 233.225 61.388V54.2H234.509V61.388C234.509 61.564 234.445 61.712 234.317 61.832C234.197 61.944 234.045 62 233.861 62ZM231.137 54.752C230.969 54.752 230.825 54.7 230.705 54.596C230.585 54.484 230.525 54.34 230.525 54.164C230.525 53.996 230.585 53.86 230.705 53.756C230.825 53.652 230.969 53.6 231.137 53.6H236.597C236.765 53.6 236.905 53.656 237.017 53.768C237.137 53.872 237.197 54.008 237.197 54.176C237.197 54.352 237.137 54.492 237.017 54.596C236.905 54.7 236.765 54.752 236.597 54.752H231.137ZM244.557 55.16L241.857 61.64C241.809 61.768 241.737 61.868 241.641 61.94C241.545 62.012 241.437 62.048 241.317 62.048C241.141 62.048 241.009 62 240.921 61.904C240.833 61.8 240.785 61.672 240.777 61.52C240.777 61.464 240.789 61.4 240.813 61.328L243.861 53.96C243.917 53.824 243.997 53.72 244.101 53.648C244.213 53.576 244.333 53.544 244.461 53.552C244.581 53.552 244.693 53.588 244.797 53.66C244.901 53.732 244.977 53.832 245.025 53.96L248.037 61.22C248.069 61.3 248.085 61.38 248.085 61.46C248.085 61.636 248.025 61.78 247.905 61.892C247.793 61.996 247.665 62.048 247.521 62.048C247.401 62.048 247.289 62.012 247.185 61.94C247.089 61.86 247.017 61.76 246.969 61.64L244.245 55.196L244.557 55.16ZM242.337 59.936L242.877 58.784H246.273L246.477 59.936H242.337ZM257.5 60.824C257.668 60.824 257.808 60.88 257.92 60.992C258.04 61.104 258.1 61.244 258.1 61.412C258.1 61.58 258.04 61.72 257.92 61.832C257.808 61.944 257.668 62 257.5 62H253.468C253.292 62 253.144 61.944 253.024 61.832C252.912 61.712 252.856 61.564 252.856 61.388V54.212C252.856 54.036 252.916 53.892 253.036 53.78C253.156 53.66 253.312 53.6 253.504 53.6C253.664 53.6 253.804 53.66 253.924 53.78C254.052 53.892 254.116 54.036 254.116 54.212V61.028L253.864 60.824H257.5ZM274.661 60.824C274.829 60.824 274.969 60.88 275.081 60.992C275.201 61.104 275.261 61.244 275.261 61.412C275.261 61.58 275.201 61.72 275.081 61.832C274.969 61.944 274.829 62 274.661 62H270.629C270.453 62 270.305 61.944 270.185 61.832C270.073 61.712 270.017 61.564 270.017 61.388V54.212C270.017 54.036 270.077 53.892 270.197 53.78C270.317 53.66 270.473 53.6 270.665 53.6C270.825 53.6 270.965 53.66 271.085 53.78C271.213 53.892 271.277 54.036 271.277 54.212V61.028L271.025 60.824H274.661ZM281.498 61.388C281.49 61.564 281.422 61.712 281.294 61.832C281.174 61.944 281.03 62 280.862 62C280.678 62 280.526 61.944 280.406 61.832C280.294 61.712 280.238 61.564 280.238 61.388V54.212C280.238 54.036 280.298 53.892 280.418 53.78C280.538 53.66 280.694 53.6 280.886 53.6C281.046 53.6 281.186 53.66 281.306 53.78C281.434 53.892 281.498 54.036 281.498 54.212V61.388ZM287.662 53.588C287.758 53.588 287.858 53.612 287.962 53.66C288.066 53.708 288.146 53.776 288.202 53.864L291.25 58.508L290.734 58.484L293.842 53.864C293.97 53.68 294.134 53.588 294.334 53.588C294.494 53.588 294.634 53.648 294.754 53.768C294.882 53.88 294.946 54.024 294.946 54.2V61.388C294.946 61.564 294.89 61.712 294.778 61.832C294.666 61.944 294.518 62 294.334 62C294.142 62 293.986 61.944 293.866 61.832C293.754 61.712 293.698 61.564 293.698 61.388V55.304L294.082 55.388L291.442 59.408C291.386 59.48 291.314 59.544 291.226 59.6C291.138 59.648 291.046 59.668 290.95 59.66C290.862 59.668 290.77 59.648 290.674 59.6C290.586 59.544 290.514 59.48 290.458 59.408L287.914 55.448L288.202 54.968V61.388C288.202 61.564 288.146 61.712 288.034 61.832C287.93 61.944 287.79 62 287.614 62C287.446 62 287.306 61.944 287.194 61.832C287.09 61.712 287.038 61.564 287.038 61.388V54.2C287.038 54.032 287.098 53.888 287.218 53.768C287.346 53.648 287.494 53.588 287.662 53.588ZM301.765 61.388C301.757 61.564 301.689 61.712 301.561 61.832C301.441 61.944 301.297 62 301.129 62C300.945 62 300.793 61.944 300.673 61.832C300.561 61.712 300.505 61.564 300.505 61.388V54.212C300.505 54.036 300.565 53.892 300.685 53.78C300.805 53.66 300.961 53.6 301.153 53.6C301.313 53.6 301.453 53.66 301.573 53.78C301.701 53.892 301.765 54.036 301.765 54.212V61.388ZM310.04 62C309.848 62 309.692 61.944 309.572 61.832C309.46 61.712 309.404 61.564 309.404 61.388V54.2H310.688V61.388C310.688 61.564 310.624 61.712 310.496 61.832C310.376 61.944 310.224 62 310.04 62ZM307.316 54.752C307.148 54.752 307.004 54.7 306.884 54.596C306.764 54.484 306.704 54.34 306.704 54.164C306.704 53.996 306.764 53.86 306.884 53.756C307.004 53.652 307.148 53.6 307.316 53.6H312.776C312.944 53.6 313.084 53.656 313.196 53.768C313.316 53.872 313.376 54.008 313.376 54.176C313.376 54.352 313.316 54.492 313.196 54.596C313.084 54.7 312.944 54.752 312.776 54.752H307.316ZM318.946 53.6H323.098C323.266 53.6 323.406 53.656 323.518 53.768C323.638 53.88 323.698 54.02 323.698 54.188C323.698 54.356 323.638 54.492 323.518 54.596C323.406 54.7 323.266 54.752 323.098 54.752H319.474L319.594 54.548V57.236L319.486 57.116H322.558C322.726 57.116 322.866 57.172 322.978 57.284C323.098 57.396 323.158 57.54 323.158 57.716C323.158 57.884 323.098 58.02 322.978 58.124C322.866 58.228 322.726 58.28 322.558 58.28H319.51L319.594 58.172V60.944L319.51 60.848H323.098C323.266 60.848 323.406 60.908 323.518 61.028C323.638 61.14 323.698 61.272 323.698 61.424C323.698 61.592 323.638 61.732 323.518 61.844C323.406 61.948 323.266 62 323.098 62H318.946C318.778 62 318.634 61.944 318.514 61.832C318.394 61.712 318.334 61.564 318.334 61.388V54.212C318.334 54.036 318.394 53.892 318.514 53.78C318.634 53.66 318.778 53.6 318.946 53.6ZM332.329 53.6C332.913 53.6 333.429 53.712 333.877 53.936C334.325 54.152 334.697 54.456 334.993 54.848C335.297 55.232 335.525 55.68 335.677 56.192C335.829 56.696 335.905 57.232 335.905 57.8C335.905 58.576 335.769 59.284 335.497 59.924C335.225 60.556 334.825 61.06 334.297 61.436C333.769 61.812 333.113 62 332.329 62H329.401C329.233 62 329.089 61.944 328.969 61.832C328.849 61.712 328.789 61.564 328.789 61.388V54.212C328.789 54.036 328.849 53.892 328.969 53.78C329.089 53.66 329.233 53.6 329.401 53.6H332.329ZM332.209 60.848C332.777 60.848 333.237 60.708 333.589 60.428C333.941 60.148 334.197 59.78 334.357 59.324C334.525 58.86 334.609 58.352 334.609 57.8C334.609 57.392 334.561 57.008 334.465 56.648C334.377 56.28 334.233 55.956 334.033 55.676C333.841 55.388 333.593 55.164 333.289 55.004C332.993 54.836 332.633 54.752 332.209 54.752H329.941L330.049 54.644V60.968L329.977 60.848H332.209Z" fill="#718399"/>
<g clip-path="url(#clip0_673_979)">
<path d="M185.626 7.17769C183.885 5.43651 181.841 4.06312 179.485 3.05287C177.13 2.04261 174.629 1.53516 171.976 1.53516C169.322 1.53516 166.831 2.04261 164.494 3.05287C162.157 4.06312 160.118 5.44117 158.382 7.17769C158.293 7.26614 158.209 7.35925 158.121 7.45237C157.111 8.75592 156.263 10.1945 155.584 11.7774C154.573 14.1284 154.066 16.6331 154.066 19.2821C154.066 21.9358 154.569 24.4358 155.584 26.7915C156.594 29.1426 157.972 31.191 159.708 32.9276C161.45 34.6687 163.489 36.0421 165.821 37.057C168.158 38.0673 170.654 38.5701 173.303 38.5701C173.4 38.5701 173.498 38.5654 173.596 38.5654C172.139 36.638 171.273 34.2451 171.273 31.6473C171.273 31.5402 171.287 31.4378 171.287 31.3307C170.086 31.2562 168.94 31.0048 167.87 30.5439C166.594 29.9992 165.477 29.245 164.513 28.286C163.549 27.3223 162.8 26.2049 162.25 24.9293C161.706 23.6537 161.431 22.285 161.431 20.8278C161.431 19.3706 161.706 18.0019 162.25 16.7262C162.795 15.4506 163.549 14.3333 164.513 13.3696C164.569 13.3137 164.634 13.2625 164.695 13.2066C165.039 12.7178 165.416 12.2569 165.844 11.8286C166.804 10.8695 167.926 10.106 169.201 9.54271C170.477 8.97939 171.845 8.6954 173.303 8.6954C174.76 8.6954 176.138 8.97939 177.427 9.54271C178.717 10.106 179.844 10.8695 180.807 11.8286C181.766 12.7923 182.521 13.9096 183.07 15.1852C183.531 16.256 183.787 17.4013 183.857 18.6024C183.945 18.6024 184.034 18.5885 184.122 18.5885C186.813 18.5885 189.29 19.5242 191.254 21.0792C191.254 20.9954 191.259 20.9162 191.259 20.8324C191.259 18.1834 190.756 15.6787 189.746 13.3277C188.74 10.9627 187.367 8.91887 185.626 7.17769Z" fill="#206FEB"/>
<path d="M182.8 23.1797C180.593 23.1797 178.591 24.0317 177.083 25.4144C176.189 26.7552 175.663 28.3706 175.663 30.1025C175.663 34.7767 179.453 38.5663 184.127 38.5663C186.334 38.5663 188.335 37.7143 189.844 36.3316C190.738 34.9908 191.264 33.3754 191.264 31.6435C191.268 26.9693 187.479 23.1797 182.8 23.1797Z" fill="#206FEB"/>
<path d="M92.5567 1.67188H75.2567C74.2604 1.67188 73.3805 1.96517 72.6216 2.53781C72.3004 3.15234 72.1328 3.83671 72.1328 4.5816V34.014C72.1328 35.2757 72.5658 36.3418 73.4364 37.2124C74.307 38.083 75.3545 38.5159 76.5835 38.5159C77.6077 38.5159 78.5016 38.2226 79.2651 37.65C79.591 37.0215 79.7586 36.3232 79.7586 35.5503V24.1954H81.0901V22.6545H90.918C91.7327 22.6545 92.445 22.445 93.0595 22.0306C93.3016 21.5232 93.4273 20.9691 93.4273 20.3593C93.4273 19.3025 93.0595 18.3993 92.3286 17.6451C91.593 16.8955 90.6805 16.5184 89.5911 16.5184H79.7633V9.96342H81.0948V8.42243H93.8929C94.8007 8.42243 95.5968 8.17568 96.2858 7.6822C96.5652 7.12353 96.7095 6.50434 96.7095 5.81997C96.7095 4.66074 96.3091 3.67842 95.5083 2.87766C94.6983 2.07225 93.716 1.67188 92.5567 1.67188Z" fill="#206FEB"/>
<path d="M105.863 1.61914C104.866 1.61914 103.986 1.91244 103.228 2.48507C102.906 3.09961 102.739 3.78397 102.739 4.52886V33.9613C102.739 35.2229 103.172 36.2891 104.042 37.1596C104.913 38.0302 105.96 38.4632 107.189 38.4632C108.214 38.4632 109.108 38.1699 109.871 37.5973C110.197 36.9688 110.365 36.2704 110.365 35.4976V6.07451C110.365 4.84544 109.932 3.79794 109.061 2.92735C108.195 2.05676 107.129 1.61914 105.863 1.61914Z" fill="#206FEB"/>
<path d="M143.591 1.67188C142.595 1.67188 141.715 1.96517 140.956 2.53781C140.635 3.15234 140.467 3.83671 140.467 4.5816V22.445L139.136 20.741V23.9906L123.014 3.31063C122.637 2.86835 122.152 2.48194 121.556 2.16071C120.961 1.83482 120.286 1.67653 119.536 1.67653C118.54 1.67653 117.66 1.96983 116.901 2.54246C116.58 3.157 116.412 3.84136 116.412 4.58625V34.0187C116.412 35.2803 116.845 36.3464 117.716 37.217C118.586 38.0876 119.634 38.5206 120.863 38.5206C121.887 38.5206 122.781 38.2273 123.544 37.6547C123.87 37.0262 124.038 36.3278 124.038 35.555V17.6451L125.369 19.3583V16.1041L141.389 36.7329C141.766 37.2077 142.25 37.6267 142.846 37.9852C143.442 38.3437 144.136 38.5206 144.918 38.5206C145.942 38.5206 146.836 38.2273 147.6 37.6547C147.926 37.0262 148.093 36.3278 148.093 35.555V6.12724C148.093 4.89817 147.656 3.85067 146.79 2.98009C145.919 2.1095 144.853 1.67188 143.591 1.67188Z" fill="#206FEB"/>
<path d="M256.614 31.7693H245.147V6.12649C245.147 4.89743 244.71 3.84993 243.844 2.97934C242.973 2.10875 241.907 1.67578 240.645 1.67578C239.649 1.67578 238.769 1.96908 238.01 2.54171C237.684 3.15625 237.521 3.84061 237.521 4.59016V34.0738C237.521 35.3029 237.959 36.3504 238.825 37.2209C239.696 38.0915 240.743 38.5245 241.972 38.5245H257.941C258.839 38.5245 259.635 38.2638 260.338 37.7563C260.613 37.2023 260.757 36.5924 260.757 35.922C260.757 34.7628 260.348 33.7805 259.528 32.9797C258.714 32.1697 257.741 31.7693 256.614 31.7693Z" fill="#206FEB"/>
<path d="M287.993 4.33766C287.206 2.49407 285.791 1.57227 283.742 1.57227C282.681 1.57227 281.787 1.84694 281.047 2.37768C280.972 2.51269 280.893 2.6477 280.823 2.79202L267.206 32.1732C266.931 32.7878 266.796 33.3837 266.796 33.9656C266.796 34.785 266.95 35.474 267.257 36.0373C267.564 36.6007 267.941 37.0616 268.383 37.42C268.826 37.7785 269.305 38.0346 269.817 38.1882C270.329 38.3418 270.79 38.4163 271.2 38.4163C272.052 38.4163 272.853 38.1882 273.607 37.7273C273.672 37.6854 273.728 37.6388 273.793 37.5923C273.835 37.5085 273.882 37.434 273.919 37.3502L275.762 32.9973H276.438L277.089 31.4563H292.802L294.594 35.8092C294.934 36.6286 295.483 37.2664 296.233 37.7273C296.982 38.1882 297.783 38.4163 298.64 38.4163C299.627 38.4163 300.488 38.137 301.233 37.5876C301.55 36.9684 301.713 36.2748 301.713 35.5066C301.713 34.8921 301.591 34.2962 301.354 33.7142L287.993 4.33766ZM288.351 25.3249H279.035L283.742 14.1143L284.082 14.9337L285.074 12.5687L289.683 23.7793H287.718L288.351 25.3249Z" fill="#206FEB"/>
<path d="M333.598 21.9553C332.984 21.1546 332.36 20.5214 331.731 20.0605C331.098 19.5996 330.581 19.283 330.172 19.1154C330.512 19.013 330.907 18.8082 331.349 18.5009C331.596 18.3287 331.838 18.1145 332.071 17.8678C331.862 17.7467 331.671 17.6443 331.503 17.5745C331.843 17.472 332.239 17.2672 332.681 16.9599C332.751 16.9087 332.821 16.8528 332.895 16.797C333.188 16.3081 333.445 15.7355 333.659 15.0744C333.929 14.2225 334.068 13.1982 334.068 12.0018C334.068 10.363 333.77 8.8965 333.174 7.5976C332.579 6.30335 331.773 5.2093 330.768 4.32009C329.762 3.43088 328.593 2.75117 327.262 2.27164C325.93 1.79212 324.529 1.55469 323.063 1.55469H310.879C309.883 1.55469 309.003 1.84799 308.244 2.42062C307.923 3.03515 307.755 3.71952 307.755 4.46906V33.9527C307.755 35.1818 308.193 36.2293 309.059 37.0999C309.929 37.9704 310.977 38.4034 312.206 38.4034H325.158C326.727 38.4034 328.244 38.1287 329.715 37.584C331.182 37.0393 332.462 36.2898 333.556 35.3307C333.687 35.2144 333.808 35.0886 333.933 34.9676C334.273 34.4881 334.59 33.9853 334.86 33.4452C335.526 32.1138 335.856 30.6473 335.856 29.0411C335.856 27.4722 335.633 26.0988 335.19 24.9209C334.743 23.7477 334.213 22.7561 333.598 21.9553ZM315.376 9.84623H316.708V8.30524H323.412C324.301 8.30524 325.064 8.63113 325.716 9.27825C326.363 9.92537 326.689 10.6935 326.689 11.5828C326.689 12.472 326.363 13.2401 325.716 13.8873C325.525 14.0781 325.325 14.2364 325.116 14.3714C324.953 14.7532 324.711 15.107 324.389 15.4282C323.742 16.0754 322.974 16.4013 322.085 16.4013H315.381V9.84623H315.376ZM326.969 28.9619C326.787 29.1435 326.592 29.3065 326.391 29.4415C326.21 29.8232 325.963 30.177 325.637 30.5029C324.902 31.2385 324.026 31.6063 323.002 31.6063H315.376V24.0783H316.708V22.5373H324.334C325.358 22.5373 326.233 22.9051 326.969 23.636C327.7 24.3716 328.067 25.2654 328.067 26.3222C328.072 27.3465 327.704 28.2264 326.969 28.9619Z" fill="#206FEB"/>
<path d="M23.7338 23.1523H8.46362C6.25689 23.1523 4.255 24.0043 2.7466 25.387C1.85274 26.7278 1.32666 28.3433 1.32666 30.0752C1.32666 34.7493 5.11628 38.539 9.79046 38.539H25.056C27.2628 38.539 29.2646 37.687 30.773 36.3043C31.6669 34.9635 32.193 33.348 32.193 31.6161C32.1976 26.942 28.408 23.1523 23.7338 23.1523Z" fill="#206FEB"/>
<path d="M45.3868 1.57812H8.54273C6.33599 1.57812 4.33411 2.43009 2.82571 3.81279C1.93184 5.15359 1.40576 6.76907 1.40576 8.50094C1.40576 13.1751 5.19538 16.9647 9.86956 16.9647H46.7136C48.9203 16.9647 50.9222 16.1128 52.4306 14.7301C53.3245 13.3893 53.8506 11.7738 53.8506 10.0419C53.8506 5.36775 50.061 1.57812 45.3868 1.57812Z" fill="#206FEB"/>
<path d="M45.3079 23.1523C43.1011 23.1523 41.0992 24.0043 39.5908 25.387C38.697 26.7278 38.1709 28.3433 38.1709 30.0752C38.1709 34.7493 41.9605 38.539 46.6347 38.539C48.8414 38.539 50.8433 37.687 52.3517 36.3043C53.2456 34.9635 53.7717 33.348 53.7717 31.6161C53.7763 26.942 49.982 23.1523 45.3079 23.1523Z" fill="#206FEB"/>
<path d="M216.66 4.29665C215.873 2.45305 214.458 1.53125 212.41 1.53125C211.348 1.53125 210.454 1.80593 209.714 2.33666C209.64 2.47167 209.56 2.60668 209.491 2.75101L195.873 32.1322C195.598 32.7467 195.463 33.3427 195.463 33.9246C195.463 34.744 195.617 35.433 195.924 35.9963C196.232 36.5596 196.609 37.0205 197.051 37.379C197.493 37.7375 197.973 37.9936 198.485 38.1472C198.997 38.3008 199.458 38.3753 199.868 38.3753C200.719 38.3753 201.52 38.1472 202.274 37.6863C202.34 37.6444 202.395 37.5978 202.461 37.5513C202.503 37.4675 202.549 37.393 202.586 37.3092L204.43 32.9562H205.105L205.757 31.4153H221.469L223.262 35.7682C223.602 36.5876 224.151 37.2254 224.9 37.6863C225.65 38.1472 226.451 38.3753 227.307 38.3753C228.294 38.3753 229.156 38.096 229.901 37.5466C230.217 36.9274 230.38 36.2338 230.38 35.4656C230.38 34.8511 230.259 34.2551 230.022 33.6732L216.66 4.29665ZM217.019 25.2839H207.703L212.41 14.0733L212.749 14.8927L213.741 12.5277L218.35 23.7382H216.385L217.019 25.2839Z" fill="#206FEB"/>
<path d="M173.312 38.5708C170.659 38.5708 168.168 38.0634 165.831 37.0578C163.494 36.0475 161.455 34.6695 159.718 32.9283C157.977 31.1918 156.604 29.1434 155.593 26.7923C154.583 24.4366 154.076 21.9366 154.076 19.2829C154.076 16.6339 154.578 14.1292 155.593 11.7781C156.273 10.1952 157.12 8.75668 158.126 7.45312C156.51 9.13378 155.221 11.0891 154.262 13.3191C153.252 15.6702 152.744 18.1749 152.744 20.8239C152.744 23.4775 153.247 25.9776 154.262 28.3333C155.272 30.6843 156.65 32.7328 158.387 34.4693C160.128 36.2105 162.167 37.5839 164.499 38.5988C166.837 39.609 169.332 40.1118 171.981 40.1118C172.935 40.1118 173.862 40.0234 174.774 39.893C174.351 39.4787 173.96 39.0364 173.606 38.5615C173.503 38.5662 173.41 38.5708 173.312 38.5708Z" fill="#FE00FF"/>
<path d="M184.132 18.5806C184.043 18.5806 183.955 18.5899 183.866 18.5945C183.792 17.3934 183.54 16.2528 183.08 15.1773C182.535 13.9017 181.781 12.7844 180.817 11.8207C179.853 10.8616 178.727 10.0981 177.437 9.53481C176.143 8.97149 174.769 8.6875 173.312 8.6875C171.855 8.6875 170.486 8.97149 169.211 9.53481C167.935 10.0981 166.818 10.8616 165.854 11.8207C165.426 12.249 165.049 12.7099 164.704 13.1987C165.626 12.3188 166.678 11.6065 167.879 11.0758C169.155 10.5125 170.524 10.2285 171.981 10.2285C173.438 10.2285 174.816 10.5125 176.106 11.0758C177.395 11.6391 178.522 12.4026 179.485 13.3617C180.445 14.3254 181.199 15.4427 181.748 16.7183C182.209 17.7891 182.465 18.9344 182.535 20.1355C182.623 20.1355 182.712 20.1215 182.8 20.1215C186.031 20.1215 188.955 21.4623 191.045 23.6132C191.166 22.7799 191.245 21.9326 191.259 21.0666C189.299 19.5163 186.823 18.5806 184.132 18.5806Z" fill="#FE00FF"/>
<path d="M184.132 38.5719C179.458 38.5719 175.668 34.7822 175.668 30.1081C175.668 28.3715 176.194 26.7607 177.088 25.4199C175.403 26.9656 174.336 29.1816 174.336 31.6537C174.336 36.3279 178.126 40.1175 182.8 40.1175C185.743 40.1175 188.331 38.6184 189.849 36.3419C188.34 37.7199 186.338 38.5719 184.132 38.5719Z" fill="#FE00FF"/>
<path d="M76.5839 38.5199C75.3549 38.5199 74.3074 38.0823 73.4368 37.2163C72.5662 36.3458 72.1332 35.2796 72.1332 34.018V4.5809C72.1332 3.83135 72.2962 3.15164 72.6221 2.53711C72.4452 2.67212 72.2729 2.81179 72.11 2.97473C71.2394 3.84532 70.8064 4.89282 70.8064 6.12189V35.5543C70.8064 36.816 71.2394 37.8821 72.11 38.7527C72.9805 39.6233 74.028 40.0562 75.2571 40.0562C76.5188 40.0562 77.5849 39.6186 78.4555 38.7527C78.7907 38.4175 79.0607 38.0497 79.2702 37.654C78.502 38.2266 77.6082 38.5199 76.5839 38.5199Z" fill="#FE00FF"/>
<path d="M93.8887 8.42187H81.0906V9.96286H92.5572C93.7164 9.96286 94.6988 9.56248 95.4995 8.76173C95.8301 8.43118 96.0861 8.07271 96.2817 7.68164C95.5926 8.17047 94.7965 8.42187 93.8887 8.42187Z" fill="#FE00FF"/>
<path d="M90.9185 22.6492H81.0906V24.1902H89.587C90.681 24.1902 91.5889 23.8131 92.3244 23.0636C92.6364 22.747 92.8784 22.3978 93.0554 22.0254C92.4455 22.4444 91.7285 22.6492 90.9185 22.6492Z" fill="#FE00FF"/>
<path d="M107.194 38.4691C105.965 38.4691 104.917 38.0315 104.047 37.1656C103.176 36.295 102.743 35.2288 102.743 33.9672V4.53012C102.743 3.78057 102.906 3.10086 103.232 2.48633C103.055 2.62134 102.883 2.76101 102.72 2.92395C101.849 3.79454 101.417 4.84204 101.417 6.07111V35.5035C101.417 36.7652 101.849 37.8313 102.72 38.7019C103.591 39.5725 104.638 40.0054 105.867 40.0054C107.129 40.0054 108.195 39.5678 109.066 38.7019C109.401 38.3667 109.671 37.9989 109.88 37.6032C109.112 38.1758 108.218 38.4691 107.194 38.4691Z" fill="#FE00FF"/>
<path d="M140.467 22.4443V4.5809C140.467 3.83135 140.63 3.15164 140.956 2.53711C140.779 2.67212 140.607 2.81179 140.444 2.97473C139.573 3.84532 139.14 4.89282 139.14 6.12189V20.7403L140.467 22.4443Z" fill="#FE00FF"/>
<path d="M144.918 38.52C144.131 38.52 143.442 38.3431 142.846 37.9846C142.25 37.6261 141.762 37.2071 141.389 36.7323L125.369 16.1035V19.3577L140.062 38.2733C140.439 38.7481 140.924 39.1671 141.52 39.5256C142.115 39.8841 142.809 40.061 143.591 40.061C144.853 40.061 145.919 39.6234 146.79 38.7574C147.125 38.4222 147.395 38.0544 147.604 37.6587C146.836 38.2267 145.942 38.52 144.918 38.52Z" fill="#FE00FF"/>
<path d="M120.863 38.5199C119.634 38.5199 118.586 38.0823 117.716 37.2163C116.845 36.3458 116.412 35.2796 116.412 34.018V4.5809C116.412 3.83135 116.575 3.15164 116.901 2.53711C116.724 2.67212 116.552 2.81179 116.389 2.97473C115.518 3.84532 115.085 4.89282 115.085 6.12189V35.5543C115.085 36.816 115.518 37.8821 116.389 38.7527C117.259 39.6233 118.307 40.0562 119.536 40.0562C120.798 40.0562 121.864 39.6186 122.734 38.7527C123.069 38.4175 123.34 38.0497 123.549 37.654C122.776 38.2266 121.887 38.5199 120.863 38.5199Z" fill="#FE00FF"/>
<path d="M257.941 38.5206H241.972C240.743 38.5206 239.696 38.083 238.825 37.2171C237.955 36.3465 237.522 35.299 237.522 34.0699V4.58165C237.522 3.8321 237.685 3.15239 238.01 2.5332C237.834 2.66821 237.661 2.80788 237.498 2.97548C236.628 3.84607 236.195 4.89357 236.195 6.12264V35.6063C236.195 36.8353 236.632 37.8828 237.498 38.7534C238.369 39.624 239.416 40.057 240.646 40.057H256.614C257.741 40.057 258.714 39.6566 259.533 38.8558C259.878 38.5206 260.143 38.1482 260.343 37.7478C259.64 38.2599 258.839 38.5206 257.941 38.5206Z" fill="#FE00FF"/>
<path d="M285.073 12.5742L284.082 14.9346L287.718 23.7848H289.682L285.073 12.5742Z" fill="#FE00FF"/>
<path d="M298.64 38.421C297.788 38.421 296.987 38.1929 296.233 37.732C295.483 37.2711 294.934 36.6333 294.594 35.8139L292.802 31.4609H277.089L276.437 33.0019H291.475L293.267 37.3549C293.607 38.1742 294.156 38.8121 294.906 39.273C295.655 39.7339 296.456 39.962 297.313 39.962C298.542 39.962 299.58 39.5337 300.437 38.6817C300.767 38.3512 301.037 37.9834 301.237 37.5876C300.488 38.1417 299.622 38.421 298.64 38.421Z" fill="#FE00FF"/>
<path d="M273.607 37.7324C272.857 38.1933 272.052 38.4215 271.2 38.4215C270.79 38.4215 270.329 38.347 269.817 38.1933C269.305 38.0397 268.825 37.7836 268.383 37.4252C267.941 37.0667 267.564 36.6058 267.256 36.0425C266.949 35.4791 266.796 34.7855 266.796 33.9707C266.796 33.3888 266.931 32.7929 267.205 32.1784L280.823 2.79716C280.893 2.64818 280.972 2.51782 281.046 2.38281C280.408 2.83906 279.887 3.48618 279.491 4.3428L265.878 33.7193C265.604 34.3339 265.469 34.9298 265.469 35.5117C265.469 36.3311 265.622 37.0201 265.93 37.5835C266.237 38.1468 266.614 38.6077 267.056 38.9662C267.499 39.3246 267.978 39.5807 268.49 39.7343C269.002 39.888 269.463 39.9624 269.873 39.9624C270.725 39.9624 271.526 39.7343 272.28 39.2734C272.95 38.8591 273.448 38.2958 273.793 37.5974C273.728 37.6393 273.672 37.6905 273.607 37.7324Z" fill="#FE00FF"/>
<path d="M326.969 28.9571C327.7 28.2262 328.068 27.3463 328.068 26.3221C328.068 25.2653 327.7 24.3714 326.969 23.6358C326.233 22.9049 325.358 22.5371 324.334 22.5371H316.708V24.0781H323.007C324.031 24.0781 324.906 24.4459 325.642 25.1768C326.373 25.9124 326.741 26.8063 326.741 27.8631C326.741 28.4357 326.624 28.9571 326.396 29.4366C326.596 29.3016 326.787 29.1433 326.969 28.9571Z" fill="#FE00FF"/>
<path d="M325.716 13.8867C326.364 13.2396 326.689 12.4714 326.689 11.5822C326.689 10.6976 326.364 9.92948 325.716 9.2777C325.069 8.63058 324.301 8.30469 323.412 8.30469H316.708V9.84568H322.085C322.974 9.84568 323.738 10.1716 324.39 10.8187C325.037 11.4658 325.363 12.234 325.363 13.1232C325.363 13.5701 325.279 13.9845 325.116 14.3662C325.325 14.2359 325.526 14.0729 325.716 13.8867Z" fill="#FE00FF"/>
<path d="M332.891 16.791C332.821 16.8469 332.751 16.9027 332.676 16.954C332.234 17.2612 331.843 17.4661 331.499 17.5685C331.666 17.6383 331.862 17.7408 332.067 17.8618C332.257 17.6616 332.439 17.4428 332.621 17.1914C332.718 17.0657 332.802 16.9307 332.891 16.791Z" fill="#FE00FF"/>
<path d="M333.547 35.33C332.453 36.2844 331.173 37.0386 329.706 37.5833C328.235 38.128 326.717 38.4027 325.148 38.4027H312.201C310.972 38.4027 309.925 37.9651 309.054 37.0991C308.184 36.2286 307.751 35.1811 307.751 33.952V4.46837C307.751 3.71882 307.914 3.03911 308.24 2.41992C308.063 2.55493 307.89 2.6946 307.727 2.8622C306.857 3.73279 306.424 4.78029 306.424 6.00935V35.493C306.424 36.722 306.861 37.7695 307.727 38.6401C308.598 39.5107 309.645 39.9437 310.875 39.9437H323.826C325.395 39.9437 326.913 39.669 328.384 39.1243C329.851 38.5796 331.131 37.8301 332.225 36.871C332.872 36.303 333.435 35.6652 333.933 34.9622C333.798 35.0879 333.682 35.2136 333.547 35.33Z" fill="#FE00FF"/>
<path d="M25.0655 38.5433H9.79529C5.12111 38.5433 1.33149 34.749 1.33149 30.0749C1.33149 28.3383 1.85757 26.7275 2.75143 25.3867C1.06147 26.9324 0 29.1484 0 31.6159C0 36.2947 3.78962 40.0843 8.4638 40.0843H23.7294C26.6717 40.0843 29.2602 38.5852 30.7779 36.3086C29.2741 37.6913 27.2722 38.5433 25.0655 38.5433Z" fill="#FE00FF"/>
<path d="M46.7138 16.9644H9.87439C5.20021 16.9644 1.41059 13.1748 1.41059 8.50064C1.41059 6.76412 1.93667 5.1533 2.83053 3.8125C1.14522 5.35814 0.0791016 7.57419 0.0791016 10.0463C0.0791016 14.7205 3.86872 18.5101 8.5429 18.5101H45.387C48.3293 18.5101 50.9178 17.011 52.4355 14.7344C50.9271 16.1125 48.9205 16.9644 46.7138 16.9644Z" fill="#FE00FF"/>
<path d="M46.6395 38.5426C41.9654 38.5426 38.1757 34.7529 38.1757 30.0788C38.1757 28.3422 38.7018 26.7314 39.5957 25.3906C37.9104 26.9363 36.8442 29.1523 36.8442 31.6244C36.8442 36.2986 40.6339 40.0882 45.308 40.0882C48.2503 40.0882 50.8388 38.5891 52.3566 36.3126C50.8482 37.6906 48.8463 38.5426 46.6395 38.5426Z" fill="#FE00FF"/>
<path d="M213.741 12.5332L212.75 14.8982L216.386 23.7438H218.35L213.741 12.5332Z" fill="#FE00FF"/>
<path d="M227.307 38.38C226.455 38.38 225.655 38.1519 224.9 37.691C224.151 37.2301 223.602 36.5922 223.262 35.7729L221.469 31.4199H205.757L205.105 32.9609H220.142L221.935 37.3139C222.275 38.1332 222.824 38.771 223.574 39.2319C224.323 39.6928 225.124 39.921 225.98 39.921C227.21 39.921 228.248 39.4927 229.104 38.6407C229.435 38.3101 229.705 37.9424 229.905 37.5466C229.156 38.1006 228.294 38.38 227.307 38.38Z" fill="#FE00FF"/>
<path d="M202.274 37.6914C201.525 38.1523 200.719 38.3804 199.867 38.3804C199.458 38.3804 198.997 38.306 198.485 38.1523C197.973 37.9987 197.493 37.7426 197.051 37.3842C196.609 37.0257 196.231 36.5648 195.924 36.0015C195.617 35.4381 195.463 34.7445 195.463 33.9297C195.463 33.3478 195.598 32.7519 195.873 32.1373L209.491 2.75614C209.56 2.60716 209.639 2.47681 209.714 2.3418C209.076 2.79804 208.555 3.44516 208.159 4.30179L194.542 33.683C194.267 34.2975 194.132 34.8934 194.132 35.4754C194.132 36.2948 194.285 36.9838 194.593 37.5471C194.9 38.1104 195.277 38.5713 195.719 38.9298C196.162 39.2883 196.641 39.5443 197.153 39.698C197.665 39.8516 198.126 39.9261 198.536 39.9261C199.388 39.9261 200.189 39.698 200.943 39.2371C201.613 38.8227 202.111 38.2594 202.456 37.5611C202.395 37.603 202.34 37.6495 202.274 37.6914Z" fill="#FE00FF"/>
<path d="M191.073 11.7832C190.063 9.43215 188.685 7.38371 186.949 5.64253C185.207 3.90135 183.164 2.52797 180.808 1.51771C178.452 0.507455 175.952 0 173.298 0C170.645 0 168.154 0.507455 165.817 1.51771C163.48 2.52797 161.441 3.90601 159.704 5.64253C159.132 6.21517 158.606 6.82039 158.112 7.4582C158.201 7.36509 158.284 7.27198 158.373 7.18352C160.114 5.44234 162.153 4.06895 164.486 3.0587C166.823 2.04844 169.318 1.54099 171.967 1.54099C174.616 1.54099 177.121 2.04844 179.476 3.0587C181.827 4.06895 183.876 5.447 185.617 7.18352C187.358 8.9247 188.732 10.9685 189.742 13.3242C190.752 15.6753 191.255 18.1799 191.255 20.829C191.255 20.9128 191.25 20.9919 191.25 21.0757C191.641 21.3876 192.018 21.7228 192.368 22.0813C192.498 21.1688 192.586 20.2424 192.586 19.288C192.586 16.639 192.084 14.1343 191.073 11.7832Z" fill="#00FFE0"/>
<path d="M172.619 29.796C171.418 29.7215 170.272 29.4701 169.202 29.0092C167.926 28.4645 166.809 27.7103 165.845 26.7512C164.881 25.7875 164.132 24.6702 163.582 23.3946C163.038 22.119 162.763 20.7502 162.763 19.293C162.763 17.8359 163.038 16.4671 163.582 15.1915C163.885 14.4839 164.262 13.8274 164.695 13.2129C164.634 13.2688 164.574 13.32 164.513 13.3758C163.55 14.3395 162.8 15.4569 162.251 16.7325C161.706 18.0081 161.431 19.3768 161.431 20.834C161.431 22.2912 161.706 23.66 162.251 24.9356C162.795 26.2112 163.55 27.3285 164.513 28.2922C165.472 29.2513 166.594 30.0055 167.87 30.5502C168.945 31.0111 170.086 31.2671 171.287 31.337C171.283 31.444 171.273 31.5465 171.273 31.6535C171.273 34.2513 172.139 36.6443 173.596 38.5717C174.444 38.5577 175.277 38.4739 176.096 38.3575C173.946 36.2625 172.605 33.3435 172.605 30.1126C172.6 30.0055 172.614 29.9031 172.619 29.796Z" fill="#00FFE0"/>
<path d="M184.122 21.6445C181.18 21.6445 178.592 23.1436 177.074 25.4202C178.582 24.0375 180.584 23.1855 182.791 23.1855C187.465 23.1855 191.255 26.9751 191.255 31.6493C191.255 33.3858 190.729 34.9967 189.835 36.3375C191.52 34.7918 192.586 32.5758 192.586 30.1037C192.586 25.4388 188.797 21.6445 184.122 21.6445Z" fill="#00FFE0"/>
<path d="M90.9089 14.982H81.081V9.97266H79.7495V16.523H89.5774C90.6714 16.523 91.5793 16.9001 92.3148 17.6497C93.0458 18.3992 93.4136 19.3024 93.4136 20.3639C93.4136 20.9737 93.2879 21.5277 93.0458 22.0352C93.2553 21.8909 93.4555 21.7279 93.6463 21.5324C94.3773 20.7829 94.7451 19.8797 94.7451 18.8182C94.7451 17.7567 94.3773 16.8582 93.6463 16.104C92.9108 15.3545 91.9983 14.982 90.9089 14.982Z" fill="#00FFE0"/>
<path d="M79.7496 24.2012V35.5654C79.7496 36.3382 79.5866 37.0365 79.2561 37.665C79.433 37.53 79.6099 37.3904 79.7729 37.2228C80.6435 36.3522 81.0764 35.286 81.0764 34.0244V24.2012H79.7496Z" fill="#00FFE0"/>
<path d="M96.8214 1.34176C96.0207 0.541003 95.0383 0.140625 93.8791 0.140625H76.5791C75.35 0.140625 74.3025 0.578247 73.4319 1.44418C73.0921 1.78404 72.822 2.15182 72.6125 2.54755C73.3761 1.97491 74.2513 1.68161 75.2476 1.68161H92.5476C93.7069 1.68161 94.6892 2.08199 95.4899 2.88275C96.2907 3.6835 96.6911 4.66582 96.6911 5.82506C96.6911 6.50942 96.5467 7.12861 96.2674 7.68728C96.4583 7.55227 96.6445 7.39864 96.8168 7.22638C97.6175 6.42562 98.0179 5.4433 98.0179 4.28407C98.0225 3.12484 97.6222 2.14251 96.8214 1.34176Z" fill="#00FFE0"/>
<path d="M110.383 1.39145C109.513 0.520857 108.447 0.0878906 107.185 0.0878906C105.956 0.0878906 104.908 0.525513 104.038 1.39145C103.698 1.7313 103.428 2.09909 103.219 2.49481C103.982 1.92218 104.857 1.62888 105.854 1.62888C107.115 1.62888 108.181 2.0665 109.052 2.93243C109.923 3.80302 110.355 4.85052 110.355 6.07959V35.512C110.355 36.2848 110.193 36.9832 109.862 37.6117C110.039 37.4766 110.216 37.337 110.379 37.1694C111.249 36.2988 111.682 35.2327 111.682 33.971V4.5386C111.692 3.30953 111.254 2.25738 110.383 1.39145Z" fill="#00FFE0"/>
<path d="M119.522 1.67696C120.272 1.67696 120.947 1.8399 121.543 2.16114C122.138 2.48702 122.627 2.86878 123 3.31106L139.122 23.991V20.7415L124.331 1.77472C123.954 1.33245 123.47 0.946036 122.874 0.624803C122.278 0.298914 121.603 0.140625 120.853 0.140625C119.624 0.140625 118.577 0.578247 117.706 1.44418C117.366 1.78404 117.096 2.15182 116.887 2.54755C117.646 1.97026 118.526 1.67696 119.522 1.67696Z" fill="#00FFE0"/>
<path d="M148.107 1.44418C147.236 0.573592 146.17 0.140625 144.909 0.140625C143.68 0.140625 142.632 0.578247 141.762 1.44418C141.422 1.78404 141.152 2.15182 140.942 2.54755C141.706 1.97491 142.581 1.68161 143.577 1.68161C144.839 1.68161 145.905 2.11924 146.776 2.98517C147.646 3.85576 148.079 4.90326 148.079 6.13232V35.5647C148.079 36.3376 147.916 37.0359 147.586 37.6644C147.763 37.5294 147.939 37.3851 148.102 37.2221C148.973 36.3515 149.406 35.2854 149.406 34.0238V4.59133C149.415 3.36227 148.978 2.31477 148.107 1.44418Z" fill="#00FFE0"/>
<path d="M124.024 17.6504V35.565C124.024 36.3378 123.861 37.0361 123.531 37.6646C123.707 37.5296 123.884 37.3899 124.047 37.2223C124.918 36.3518 125.351 35.2856 125.351 34.024V19.3636L124.024 17.6504Z" fill="#00FFE0"/>
<path d="M260.851 31.4399C260.032 30.6392 259.059 30.2388 257.932 30.2388H246.465V4.59134C246.465 3.36227 246.028 2.31477 245.162 1.44418C244.291 0.573592 243.225 0.140625 241.963 0.140625C240.734 0.140625 239.687 0.578247 238.816 1.44418C238.476 1.78404 238.206 2.15182 237.997 2.54755C238.756 1.97491 239.636 1.68161 240.632 1.68161C241.894 1.68161 242.96 2.11924 243.83 2.98517C244.701 3.85576 245.134 4.90326 245.134 6.13233V31.7751H256.6C257.727 31.7751 258.7 32.1755 259.519 32.9763C260.339 33.777 260.749 34.7593 260.749 35.9186C260.749 36.5936 260.604 37.2035 260.33 37.7529C260.506 37.6225 260.683 37.4828 260.851 37.3199C261.67 36.5191 262.08 35.5368 262.08 34.3776C262.08 33.2183 261.67 32.2407 260.851 31.4399Z" fill="#00FFE0"/>
<path d="M302.672 32.1837L289.311 2.80251C288.524 0.958909 287.108 0.0371094 285.06 0.0371094C283.24 0.0371094 281.904 0.823898 281.033 2.38351C281.773 1.85278 282.667 1.5781 283.729 1.5781C285.777 1.5781 287.192 2.4999 287.979 4.3435L301.34 33.7247C301.578 34.3066 301.699 34.9026 301.699 35.5171C301.699 36.2853 301.536 36.9789 301.219 37.5981C301.401 37.4631 301.578 37.3141 301.75 37.1465C302.602 36.2946 303.03 35.2378 303.03 33.9761C303.03 33.3616 302.909 32.7657 302.672 32.1837Z" fill="#00FFE0"/>
<path d="M283.733 14.125L279.026 25.3309H288.342L287.709 23.7899H280.353L284.068 14.9444L283.733 14.125Z" fill="#00FFE0"/>
<path d="M275.749 33.0117L273.905 37.3647C273.868 37.4485 273.821 37.5276 273.78 37.6067C274.431 37.1598 274.92 36.5686 275.232 35.819L276.424 33.0117H275.749Z" fill="#00FFE0"/>
<path d="M231.339 32.1466L217.978 2.7654C217.196 0.9218 215.78 0 213.732 0C211.912 0 210.575 0.786789 209.705 2.3464C210.445 1.81567 211.339 1.54099 212.4 1.54099C214.449 1.54099 215.864 2.46279 216.651 4.30639L230.012 33.6876C230.25 34.2695 230.371 34.8654 230.371 35.48C230.371 36.2481 230.208 36.9418 229.891 37.561C230.073 37.426 230.25 37.277 230.422 37.1094C231.274 36.2575 231.702 35.2006 231.702 33.939C231.698 33.3245 231.577 32.7239 231.339 32.1466Z" fill="#00FFE0"/>
<path d="M212.4 14.084L207.693 25.2946H217.009L216.376 23.7536H209.025L212.74 14.9034L212.4 14.084Z" fill="#00FFE0"/>
<path d="M204.416 32.9707L202.572 37.3236C202.535 37.4074 202.489 37.4866 202.447 37.5657C203.099 37.1188 203.587 36.5275 203.899 35.778L205.091 32.9707H204.416Z" fill="#00FFE0"/>
<path d="M315.367 9.85547V16.4058H322.071C322.96 16.4058 323.724 16.0799 324.376 15.4328C324.697 15.1116 324.944 14.7578 325.102 14.376C324.594 14.7019 324.026 14.8648 323.403 14.8648H316.699V9.85547H315.367Z" fill="#00FFE0"/>
<path d="M310.861 1.56443H323.044C324.511 1.56443 325.912 1.80186 327.244 2.28138C328.575 2.7609 329.744 3.44061 330.749 4.32983C331.755 5.21904 332.556 6.30844 333.156 7.60734C333.752 8.90624 334.05 10.3727 334.05 12.0115C334.05 13.208 333.915 14.2275 333.64 15.0842C333.426 15.7499 333.175 16.3225 332.877 16.8067C333.245 16.5134 333.603 16.1363 333.943 15.6661C334.353 15.1028 334.692 14.3951 334.967 13.5432C335.237 12.6912 335.377 11.667 335.377 10.4705C335.377 8.83175 335.079 7.36525 334.483 6.06635C333.887 4.7721 333.082 3.67805 332.076 2.78884C331.07 1.89963 329.902 1.21992 328.57 0.740393C327.239 0.260871 325.838 0.0234375 324.371 0.0234375H312.187C310.958 0.0234375 309.911 0.46106 309.04 1.32699C308.7 1.66685 308.43 2.03464 308.221 2.43036C308.989 1.85307 309.864 1.56443 310.861 1.56443Z" fill="#00FFE0"/>
<path d="M315.367 31.612H322.993C324.017 31.612 324.892 31.2442 325.628 30.5087C325.954 30.1828 326.201 29.8289 326.382 29.4472C325.777 29.8615 325.093 30.0664 324.32 30.0664H316.694V24.084H315.363V31.612H315.367Z" fill="#00FFE0"/>
<path d="M336.508 23.3899C336.066 22.212 335.535 21.225 334.921 20.4196C334.306 19.6189 333.682 18.9857 333.054 18.5248C332.686 18.2548 332.355 18.0406 332.062 17.873C331.825 18.1244 331.587 18.3386 331.34 18.5062C330.898 18.8135 330.507 19.0183 330.163 19.1207C330.572 19.293 331.089 19.6049 331.722 20.0658C332.355 20.5267 332.979 21.1599 333.589 21.9606C334.204 22.7614 334.73 23.753 335.177 24.9309C335.619 26.1087 335.842 27.4821 335.842 29.051C335.842 30.6572 335.512 32.1237 334.846 33.4552C334.576 33.9952 334.259 34.498 333.92 34.9776C334.832 34.0977 335.591 33.0827 336.178 31.9142C336.843 30.5827 337.174 29.1162 337.174 27.51C337.169 25.9411 336.95 24.5631 336.508 23.3899Z" fill="#00FFE0"/>
<path d="M25.0516 21.6152H9.78606C6.84375 21.6152 4.25526 23.1143 2.73755 25.3909C4.24595 24.0082 6.24784 23.1562 8.45457 23.1562H23.7201C28.3943 23.1562 32.1839 26.9458 32.1839 31.62C32.1839 33.3565 31.6579 34.9674 30.764 36.3082C32.454 34.7672 33.5201 32.5511 33.5201 30.0837C33.5201 25.4049 29.7305 21.6152 25.0516 21.6152Z" fill="#00FFE0"/>
<path d="M46.7048 0.0410156H9.86077C6.91846 0.0410156 4.32997 1.5401 2.81226 3.81667C4.32066 2.43397 6.32254 1.582 8.52928 1.582H45.3733C50.0475 1.582 53.8371 5.37163 53.8371 10.0458C53.8371 11.7823 53.3111 13.3931 52.4172 14.7339C54.1025 13.1883 55.1686 10.9723 55.1686 8.50016C55.1733 3.83064 51.3837 0.0410156 46.7048 0.0410156Z" fill="#00FFE0"/>
<path d="M46.6303 21.6152C43.688 21.6152 41.0995 23.1143 39.5818 25.3909C41.0902 24.0082 43.0921 23.1562 45.2988 23.1562C49.973 23.1562 53.7626 26.9458 53.7626 31.62C53.7626 33.3565 53.2365 34.9674 52.3427 36.3082C54.028 34.7625 55.0941 32.5465 55.0941 30.0744C55.0941 25.4049 51.3045 21.6152 46.6303 21.6152Z" fill="#00FFE0"/>
</g>
<defs>
<clipPath id="clip0_673_979">
<rect width="337.169" height="40.1123" fill="white"/>
</clipPath>
</defs>
</svg>
